<svg xmlns="http://www.w3.org/2000/svg" width="208.078" height="16.233" viewBox="0 0 55.054 4.295" xmlns:v="https://vecta.io/nano"><path d="M42.493 0v3.841l.515.445 2.899.009.532-.55V1.803l-.534-.534-2.118-.009-.473.525 2.571.007.019 1.996-2.844.017V.009zm4.401 0v3.841l.515.445 2.899.009.532-.55V1.803l-.534-.534-2.118-.009-.473.525 2.571.007.019 1.996-2.844.017V.009zM5.44.013L0 .022v.609L2.384.622l-.009 3.668h.692l.013-3.66L5.439.622zm9.362.004l.002 4.271.45-.001.009-4.27zm18.04.003h-.726l-.003 3.593.721.673 4.769.001-.003-.686-4.766.003zm5.819 1.237l-.545.517-.003 1.985.513.526 2.34-.001.469-.494-2.818-.017.009-2.007 2.932-.013.009 1.858.456.46.004-2.814zm-20.479.004l-2.158.001-.498.505 2.685-.015-.007 2.535h.482l-.001-2.499zm-7.273.006l-.549.531V3.77l.496.519 2.351-.001.475-.487-2.818-.017.009-2.007 2.932-.013.009 1.858.456.46.004-2.814zm13.052.002l-.527.453-.007.851.298.21-.298.21v.84l.499.457 2.723.002.511-.478-3.252-.007v-.796l3.246-.014.002-.455-3.239-.003.009-.77 3.231.003-.002-.5zm-17.468.002l-.556.514.008 1.989.51.515 2.333-.001.479-.484-2.818-.017.009-2.007 2.932-.013.009 1.858.456.46.004-2.814zm16.406.006l-3.199.001-.534.485v.801l.271.254-.276.249v.712l.556.509h2.682l.494-.489-3.22.009-.009-.779 3.238-.009v-.481h-3.229v-.77l3.227.004zm28.942.001l-.521.485v.795l.26.204-.26.288.007.746.492.485h2.751l.464-.464-3.215-.014.007-.774 3.215-.021v-.457h-3.236v-.774l3.236-.035.014-.464zm-21.701.001l-1.969.002-.543.523.002 2.487.525-.004-.002-2.51h1.986z" fill="#fed100"/></svg>